<?xml version="1.0" encoding="utf-8"?>
<!-- Generated by IcoMoon.io -->
<!DOCTYPE svg PUBLIC "-//W3C//DTD SVG 1.1//EN" "http://www.w3.org/Graphics/SVG/1.1/DTD/svg11.dtd">
<svg version="1.1" xmlns="http://www.w3.org/2000/svg" xmlns:xlink="http://www.w3.org/1999/xlink" width="512" height="512" viewBox="0 0 512 512">
<g>
</g>
	<path d="M346.122 24.566c-4.055 0-8.12 0-12.257 0-43.284 17.040-77.291 43.581-79.401 102.523 59.177 7.322 91.197-39.803 91.658-102.523z" fill="#000000" />
	<path d="M428.565 182.989c-20.921-30.935-50.104-49.961-97.762-46.592-25.344 1.822-50.637 21.75-73.236 21.75-25.344 0-46.654-20.787-70.318-21.75-62.761-2.447-106.383 54.928-116.091 114.934 0 16.578 0 33.157 0 49.684 16.077 82.063 45.599 150.364 106.978 186.419 8.089 0 16.261 0 24.402 0 33.638-25.416 93.163-20.245 128.266 0 6.164 0 12.257 0 18.32 0 48.435-21.238 68.659-71.076 91.719-118.057 0-2.079 0-4.178 0-6.257-72.499-14.704-80.865-154.214-12.278-180.132z" fill="#000000" />
</svg>
